HIERARCHY
ROOT Hips
{
	OFFSET 0.000000 0.000000 0.000000
	CHANNELS 6 Xposition Yposition Zposition Xrotation Yrotation Zrotation
	JOINT LeftUpLeg_virtual
	{
		OFFSET 0.000000 0.000000 0.000000
		CHANNELS 3 Xrotation Yrotation Zrotation
		JOINT LeftUpLeg
		{
			OFFSET 13.026900 -6.336304 -1.092800
			CHANNELS 3 Xrotation Yrotation Zrotation
			JOINT LeftLeg
			{
				OFFSET 0.524474 -46.096886 9.782700
				CHANNELS 3 Xrotation Yrotation Zrotation
				JOINT LeftFoot
				{
					OFFSET -0.524474 -53.427422 -12.948200
					CHANNELS 3 Xrotation Yrotation Zrotation
					JOINT LeftToeBase
					{
						OFFSET 0.192200 -14.009700 16.364100
						CHANNELS 3 Xrotation Yrotation Zrotation
						JOINT LeftToe_End
						{
							OFFSET -1.784700 -0.561700 9.474800
							CHANNELS 3 Xrotation Yrotation Zrotation
							End Site
							{
								OFFSET 0 0 0
							}
						}
					}
				}
			}
		}
	}
	JOINT RightUpLeg_virtual
	{
		OFFSET 0.000000 0.000000 0.000000
		CHANNELS 3 Xrotation Yrotation Zrotation
		JOINT RightUpLeg
		{
			OFFSET -12.883000 -6.336304 -1.092800
			CHANNELS 3 Xrotation Yrotation Zrotation
			JOINT RightLeg
			{
				OFFSET -0.524587 -46.096825 9.782800
				CHANNELS 3 Xrotation Yrotation Zrotation
				JOINT RightFoot
				{
					OFFSET 0.524587 -53.427383 -12.948300
					CHANNELS 3 Xrotation Yrotation Zrotation
					JOINT RightToeBase
					{
						OFFSET -0.192200 -14.009700 16.364100
						CHANNELS 3 Xrotation Yrotation Zrotation
						JOINT RightToe_End
						{
							OFFSET 1.784700 -0.561700 9.474800
							CHANNELS 3 Xrotation Yrotation Zrotation
							End Site
							{
								OFFSET 0 0 0
							}
						}
					}
				}
			}
		}
	}
	JOINT Spine_virtual
	{
		OFFSET 0.000000 0.000000 0.000000
		CHANNELS 3 Xrotation Yrotation Zrotation
		JOINT Spine
		{
			OFFSET 0.072000 7.257294 -0.789700
			CHANNELS 3 Xrotation Yrotation Zrotation
			JOINT Spine1
			{
				OFFSET 0.000000 12.508769 -0.658067
				CHANNELS 3 Xrotation Yrotation Zrotation
				JOINT Spine1_split
				{
					OFFSET 0.000000 12.508769 -0.658067
					CHANNELS 3 Xrotation Yrotation Zrotation
					JOINT Spine2
					{
						OFFSET 0.000000 12.508769 -0.658067
						CHANNELS 3 Xrotation Yrotation Zrotation
						JOINT Neck_virtual
						{
							OFFSET 0.000000 0.000000 0.000000
							CHANNELS 3 Xrotation Yrotation Zrotation
							JOINT Neck
							{
								OFFSET 0.000000 14.033295 7.520400
								CHANNELS 3 Xrotation Yrotation Zrotation
								JOINT Head
								{
									OFFSET 0.000000 8.198502 5.703100
									CHANNELS 3 Xrotation Yrotation Zrotation
									JOINT HeadTop_End
									{
										OFFSET 0.000000 17.760803 13.332701
										CHANNELS 3 Xrotation Yrotation Zrotation
										End Site
										{
											OFFSET 0 0 0
										}
									}
								}
							}
						}
						JOINT LeftShoulder_virtual
						{
							OFFSET 0.000000 0.000000 0.000000
							CHANNELS 3 Xrotation Yrotation Zrotation
							JOINT LeftShoulder
							{
								OFFSET 6.292450 5.785301 -0.669000
								CHANNELS 3 Xrotation Yrotation Zrotation
								JOINT LeftShoulder_split
								{
									OFFSET 6.292450 5.785301 -0.669000
									CHANNELS 3 Xrotation Yrotation Zrotation
									JOINT LeftArm
									{
										OFFSET 13.907140 -6.093903 1.965100
										CHANNELS 3 Xrotation Yrotation Zrotation
										JOINT LeftForeArm
										{
											OFFSET 34.140198 0.000000 0.000000
											CHANNELS 3 Xrotation Yrotation Zrotation
											JOINT LeftHand
											{
												OFFSET 40.960209 0.000000 0.000000
												CHANNELS 3 Xrotation Yrotation Zrotation
												End Site
												{
													OFFSET 0 0 0
												}
											}
										}
									}
								}
							}
						}
						JOINT RightShoulder_virtual
						{
							OFFSET 0.000000 0.000000 0.000000
							CHANNELS 3 Xrotation Yrotation Zrotation
							JOINT RightShoulder
							{
								OFFSET -6.292450 5.785301 -0.669000
								CHANNELS 3 Xrotation Yrotation Zrotation
								JOINT RightShoulder_split
								{
									OFFSET -6.292450 5.785301 -0.669000
									CHANNELS 3 Xrotation Yrotation Zrotation
									JOINT RightArm
									{
										OFFSET -13.907140 -6.093903 1.965100
										CHANNELS 3 Xrotation Yrotation Zrotation
										JOINT RightForeArm
										{
											OFFSET -34.140198 0.000000 0.000000
											CHANNELS 3 Xrotation Yrotation Zrotation
											JOINT RightHand
											{
												OFFSET -40.960209 0.000000 0.000000
												CHANNELS 3 Xrotation Yrotation Zrotation
												End Site
												{
													OFFSET 0 0 0
												}
											}
										}
									}
								}
							}
						}
					}
				}
			}
		}
	}
}
MOTION
Frames: 7
Frame Time: 0.03333333
-5.288026 107.995148 -21.085682 0.000000 0.000000 0.000000 174.307234 54.160221 -178.222093 -25.718041 -6.465164 7.187235 28.570722 -10.892885 -0.599842 0.381929 3.206922 -16.932466 3.733390 -3.648138 4.570258 0.000000 0.000000 0.000000 171.925642 47.915491 -175.160338 -1.237850 -11.610761 -5.536185 32.902930 3.609299 1.024566 -19.280598 -2.772088 20.478997 -6.378116 3.382119 -1.972215 0.000000 0.000000 0.000000 170.631280 52.395095 -177.712479 0.346921 -8.302487 14.037731 2.883087 -0.571671 0.013968 0.094774 -0.637529 -0.078508 0.000000 0.000000 0.000000 5.009671 3.592175 1.550137 34.388469 -5.099804 -5.842814 114.063927 -62.109629 -44.103652 0.000000 0.000000 0.000000 1.841321 1.257507 -2.068094 5.395935 -7.034972 -28.545430 4.079815 -19.032452 5.719772 -19.749822 36.261351 -22.660025 -13.051411 -60.708634 -5.988536 0.000000 0.000000 0.000000 1.335962 1.131199 2.268482 -12.008747 -9.079553 4.266991 15.628000 3.018413 -16.062563 -26.133962 -2.821588 42.371219 -9.179804 16.727437 -0.020665 0.000000 0.000000 0.000000 
-5.523363 108.009872 -19.399082 0.000000 0.000000 0.000000 173.933281 51.330463 -178.004224 -24.934314 -4.552593 8.128850 28.695882 -10.482511 -1.410721 -0.797335 4.704174 -15.794801 2.547424 -3.986654 4.663755 0.000000 0.000000 0.000000 171.758808 47.539534 -175.562295 -3.413575 -9.378061 -5.687665 31.946482 3.516384 0.596646 -21.767879 -2.383811 17.646924 0.963937 3.312201 -2.516726 0.000000 0.000000 0.000000 171.109489 51.031915 -177.946194 -0.612591 -8.298314 14.242777 2.850532 -0.134816 -0.004312 0.185728 0.001854 -0.035367 0.000000 0.000000 0.000000 4.271085 3.671607 1.294479 33.827065 -5.293753 -6.180166 116.694164 -60.819952 -36.671579 0.000000 0.000000 0.000000 1.819735 1.485492 -1.984117 4.509573 -7.528368 -26.880312 7.515994 -14.822468 4.508827 -19.193158 37.741204 -24.788730 -12.469099 -55.410582 -4.509661 0.000000 0.000000 0.000000 1.647120 1.649994 1.579350 -11.398478 -4.380438 6.242405 17.835407 10.125849 -19.964295 -26.726163 -0.650014 42.221986 -8.764922 13.312790 -0.887971 0.000000 0.000000 0.000000 
-6.364374 106.810036 -18.332005 0.000000 0.000000 0.000000 173.715493 49.937463 -177.615504 -24.679224 -0.780307 9.939851 31.029095 -10.112785 -2.482132 -3.115180 7.763210 -14.387141 2.095975 -4.235349 4.365773 0.000000 0.000000 0.000000 171.569967 48.724565 -175.607661 -11.853862 -7.262903 -7.118190 35.403408 5.732281 -0.207468 -21.281645 0.122181 18.615891 4.723486 3.541532 -5.552819 0.000000 0.000000 0.000000 172.111628 50.607631 -178.411194 -1.475913 -7.910163 14.033191 2.927275 0.389745 -0.329143 0.317957 0.287653 -0.020741 0.000000 0.000000 0.000000 3.296071 4.025368 0.689467 32.498057 -5.044864 -7.840350 114.331383 -57.404967 -29.434827 0.000000 0.000000 0.000000 1.834116 1.873952 -1.975904 3.187804 -9.174690 -24.368503 9.555866 -12.521689 4.773336 -14.835582 38.940596 -27.051439 -11.397777 -45.434914 -2.298359 0.000000 0.000000 0.000000 1.756232 2.286982 0.663690 -10.777696 0.868559 8.642088 18.398472 9.820576 -21.434657 -25.487679 11.126880 39.642336 -7.634727 6.129988 -2.511763 0.000000 0.000000 0.000000 
-7.548574 104.694099 -18.364056 0.000000 0.000000 0.000000 173.253909 49.714659 -176.829800 -24.736519 4.474048 11.674791 35.221291 -9.258146 -3.577121 -8.169303 12.109295 -11.852704 2.279032 -4.480386 4.048038 0.000000 0.000000 0.000000 171.106593 50.164895 -174.832161 -24.806895 -5.198734 -9.147840 42.365761 9.131895 -1.515527 -19.102967 3.965080 21.334818 4.827051 4.009347 -9.875555 0.000000 0.000000 0.000000 172.599304 51.333960 -177.968242 -2.245309 -7.340797 13.280821 3.304179 0.847804 -0.849754 0.311241 0.330298 0.030471 0.000000 0.000000 0.000000 2.559657 4.514658 0.021208 30.577695 -3.940819 -10.430474 106.927233 -51.920660 -25.219113 0.000000 0.000000 0.000000 1.963117 2.365400 -1.977323 2.013078 -11.341672 -21.502177 10.346990 -12.373697 6.024977 -7.539654 39.772403 -28.796276 -10.931684 -35.103856 -0.785386 0.000000 0.000000 0.000000 1.652015 2.774161 -0.188693 -10.180282 5.214708 10.752923 15.654401 4.226382 -19.875477 -20.460134 28.063586 34.171512 -6.525906 -1.146884 -4.254202 0.000000 0.000000 0.000000 
-8.924866 101.989090 -18.610645 0.000000 0.000000 0.000000 172.204710 49.550768 -175.162810 -25.017660 9.453643 12.937749 40.242235 -8.307568 -4.293462 -15.824061 16.608373 -9.080350 2.578930 -4.691330 3.865155 0.000000 0.000000 0.000000 170.416225 51.297507 -173.687599 -39.853334 -3.738242 -11.261609 50.122800 11.982350 -3.057813 -16.081704 7.880056 22.407516 4.577148 4.568527 -14.057562 0.000000 0.000000 0.000000 171.727526 52.582423 -175.923120 -2.809358 -6.665719 11.990184 3.843055 0.923797 -1.344342 0.106069 0.210023 0.170429 0.000000 0.000000 0.000000 2.356255 4.690439 -0.459664 27.817849 -2.433135 -13.321801 96.648543 -44.598123 -23.573742 0.000000 0.000000 0.000000 2.217002 2.688364 -1.861338 1.499295 -13.246482 -18.325049 9.864583 -12.754892 6.471333 1.519897 40.852697 -29.752840 -11.024052 -29.055850 -0.019409 0.000000 0.000000 0.000000 1.627355 2.780398 -0.705028 -9.583093 8.022838 12.467575 11.588084 -1.078254 -18.089928 -10.042519 43.003592 24.970116 -5.997738 -6.524526 -5.778169 0.000000 0.000000 0.000000 
-10.755683 98.861923 -18.215343 0.000000 0.000000 0.000000 170.427946 49.205601 -172.623933 -26.699105 12.297346 14.106361 45.667352 -7.813433 -4.212692 -23.144265 20.160862 -8.092238 2.628809 -4.866232 3.871740 0.000000 0.000000 0.000000 169.346003 52.093696 -172.148429 -54.486413 -3.243294 -13.330611 56.964792 13.441212 -4.155753 -12.228313 10.994371 20.631145 5.734547 4.932614 -17.019836 0.000000 0.000000 0.000000 168.722229 53.707451 -171.750120 -2.793223 -6.000082 10.329953 4.393741 0.470326 -1.627965 -0.065107 0.121411 0.152243 0.000000 0.000000 0.000000 2.950982 4.334526 -0.616098 24.502974 -0.711072 -15.773110 86.243064 -35.578435 -23.202390 0.000000 0.000000 0.000000 2.740454 2.592218 -1.613803 1.902973 -13.756237 -14.812640 9.036209 -14.645360 6.130730 9.998298 42.714258 -29.977215 -11.464566 -29.962896 0.066661 0.000000 0.000000 0.000000 2.213505 2.294400 -0.823700 -8.973682 8.702882 13.219739 8.339372 -3.389708 -16.152482 3.245668 50.405089 13.734801 -6.376262 -10.396788 -7.148859 0.000000 0.000000 0.000000 
-12.462672 95.777084 -17.210468 0.000000 0.000000 0.000000 168.075847 48.864505 -169.780416 -30.259661 12.248355 15.515050 52.195595 -8.113506 -3.304970 -26.907873 22.330453 -9.478919 2.272878 -5.162506 3.697924 0.000000 0.000000 0.000000 167.721511 51.971948 -170.204448 -66.939576 -3.137735 -15.166548 62.491218 13.722635 -4.747438 -7.240901 12.885136 17.104708 5.635822 5.536237 -18.367463 0.000000 0.000000 0.000000 163.653464 54.219394 -165.408180 -2.019296 -5.185228 8.462329 5.127928 -0.320399 -1.545476 -0.135083 0.126182 0.058778 0.000000 0.000000 0.000000 4.418375 3.549316 -0.285393 20.604850 0.901032 -16.782982 77.217754 -26.288172 -22.317831 0.000000 0.000000 0.000000 3.627616 2.200029 -1.437910 2.891033 -12.624742 -11.607844 8.975891 -18.522027 5.463267 17.594950 45.951522 -30.407265 -11.740108 -38.865627 -0.318389 0.000000 0.000000 0.000000 3.566085 1.535382 -0.616662 -8.474707 7.402731 13.494538 4.826078 -2.764565 -14.967405 10.406037 49.424823 8.412873 -8.098542 -14.165072 -8.388398 0.000000 0.000000 0.000000 
